{"title":"Hercules and the Lost Kingdom (1994) DVD RIP","uid":10989728,"size":1396247762,"categoryP":"video","categoryS":"movies","magnet":"?xt=urn:btih:460da0d5e0ecf00809b536f28a1cc4bb5e5188b9&amp;dn=Hercules+and+the+Lost+Kingdom+%281994%29+DVD+RIP&amp;tr=udp%3A%2F%2Ftracker.openbittorrent.com%3A80&amp;tr=udp%3A%2F%2Fopen.demonii.com%3A1337&amp;tr=udp%3A%2F%2Ftracker.coppersurfer.tk%3A6969&amp;tr=udp%3A%2F%2Fexodus.desync.com%3A6969","seeders":1,"leechers":0,"uploader":"jmanwf","files":-1,"time":1409980989,"description":"Movie Info\n\nThe second of five made-for-TV movies starring Kevin Sorbo as legendary muscleman Hercules, this one pits the title character against his most fearsome enemy--his own immortal stepmother, Hera. Using a number of disguises, the villainess does her best (or worst) to thwart Hercules in his search for the lost city of Troy. Before long, it is apparent that our hero is surrounded by nothing but enemies, save for the beautiful and the mysterious Deineira\n\n\n\nFormat : MPEG-4\nFormat profile : Base Media / Version 2\nCodec ID : mp42\nFile size : 1.30 GiB\nDuration : 1h 30mn\nOverall bit rate : 2 066 Kbps\nEncoded date : UTC 2014-08-29 08:29:59\nTagged date : UTC 2014-08-29 09:04:59\nWriting application : HandBrake 0.9.9 2013052900\n\nVideo\nID : 1\nFormat : AVC\nFormat/Info : Advanced Video Codec\nFormat profile : &lt;a class=&quot;__cf_email__&quot; href=&quot;/cdn-cgi/l/email-protection&quot; data-cfemail=&quot;a2eacbc5cae2ee968c93&quot;&gt;[email&amp;#160;protected]&lt;/a&gt;&lt;script cf-hash='f9e31' type=&quot;text/javascript&quot;&gt;\n/* &lt;![CDATA[ */!function(){try{var t=&quot;currentScript&quot;in document?document.currentScript:function(){for(var t=document.getElementsByTagName(&quot;script&quot;),e=t.length;e--;)if(t[e].getAttribute(&quot;cf-hash&quot;))return t[e]}();if(t&amp;&amp;t.previousSibling){var e,r,n,i,c=t.previousSibling,a=c.getAttribute(&quot;data-cfemail&quot;);if(a){for(e=&quot;&quot;,r=parseInt(a.substr(0,2),16),n=2;a.length-n;n+=2)i=parseInt(a.substr(n,2),16)^r,e+=String.fromCharCode(i);e=document.createTextNode(e),c.parentNode.replaceChild(e,c)}}}catch(u){}}();/* ]]&gt; */&lt;/script&gt;\nFormat settings, CABAC : Yes\nFormat settings, ReFrames : 4 frames\nCodec ID : avc1\nCodec ID/Info : Advanced Video Coding\nDuration : 1h 30mn\nBit rate : 1 614 Kbps\nWidth : 720 pixels\nHeight : 480 pixels\nDisplay aspect ratio : 4:3\nOriginal display aspect ratio : 4:3\nFrame rate mode : Variable\nFrame rate : 26.778 fps\nMinimum frame rate : 19.969 fps\nMaximum frame rate : 29.970 fps\nStandard : NTSC\nColor space : YUV\nChroma subsampling : 4:2:0\nBit depth : 8 bits\nScan type : Progressive\nBits/(Pixel*Frame) : 0.174\nStream size : 1.02 GiB (78%)\nWriting library : x264 core 130 r2273 b3065e6\nEncoded date : UTC 2014-08-29 08:29:59\nTagged date : UTC 2014-08-29 09:04:59\nColor primaries : BT.601 NTSC\nTransfer characteristics : BT.709\nMatrix coefficients : BT.601\n\nAudio\nID : 2\nFormat : AC-3\nFormat/Info : Audio Coding 3\nMode extension : CM (complete main)\nFormat settings, Endianness : Big\nCodec ID : ac-3\nDuration : 1h 30mn\nBit rate mode : Constant\nBit rate : 448 Kbps\nChannel(s) : 6 channels\nChannel positions : Front: L C R, Side: L R, LFE\nSampling rate : 48.0 KHz\nBit depth : 16 bits\nCompression mode : Lossy\nStream size : 289 MiB (22%)\nLanguage : English\nEncoded date : UTC 2014-08-29 08:29:59\nTagged date : UTC 2014-08-29 09:04:58\n\n\n &lt;a href=&quot;\nhttp://www.imdb.com/title/tt0110017/?ref_=ttmd_md_nm&quot; rel=&quot;nofollow&quot; target=&quot;_NEW&quot;&gt;\nhttp://www.imdb.com/title/tt0110017/?ref_=ttmd_md_nm&lt;/a&gt;","torrent":{"xt":"urn:btih:460da0d5e0ecf00809b536f28a1cc4bb5e5188b9","amp;dn":"Hercules+and+the+Lost+Kingdom+%281994%29+DVD+RIP","amp;tr":["udp%3A%2F%2Ftracker.openbittorrent.com%3A80","udp%3A%2F%2Fopen.demonii.com%3A1337","udp%3A%2F%2Ftracker.coppersurfer.tk%3A6969","udp%3A%2F%2Fexodus.desync.com%3A6969"],"infoHash":"460da0d5e0ecf00809b536f28a1cc4bb5e5188b9","infoHashBuffer":{"type":"Buffer","data":[70,13,160,213,224,236,240,8,9,181,54,242,138,28,196,187,94,81,136,185]},"announce":[],"urlList":[]}}